Coordinates
version=1
nRows=60
nColumns=12
inDegrees=yes

Units are S.I. units (second, meters, Newtons, ...)
Angles are in degrees

endheader
time	SC_y	SC_z	SC_x	AC_y	AC_z	AC_x	GH_y	GH_z	GH_yy	EL_x	PS_y
       0.0              -13.06          30.09          46.43          30.74         -5.314          2.982         -41.73          23.79         -3.231          125.4          30.61
    0.0179              -13.06          30.09          46.43          30.74         -5.313          2.983         -41.71           23.8         -3.221          125.4          30.62
    0.0358              -13.07          30.09          46.43          30.74         -5.312          2.983         -41.69          23.81         -3.211          125.4          30.62
    0.0537              -13.07           30.1          46.43          30.74          -5.31          2.984         -41.68          23.81           -3.2          125.4          30.62
    0.0716              -13.07           30.1          46.43          30.74         -5.309          2.985         -41.66          23.82         -3.188          125.3          30.62
    0.0895              -13.08           30.1          46.43          30.74         -5.308          2.985         -41.64          23.83         -3.176          125.3          30.62
    0.1074              -13.08           30.1          46.43          30.75         -5.307          2.986         -41.62          23.84         -3.162          125.3          30.62
    0.1253              -13.09           30.1          46.43          30.75         -5.305          2.987         -41.59          23.85         -3.148          125.3          30.63
    0.1432              -13.09           30.1          46.43          30.75         -5.303          2.988         -41.57          23.86         -3.133          125.3          30.63
    0.1611               -13.1           30.1          46.42          30.75         -5.302          2.989         -41.54          23.88         -3.116          125.2          30.63
     0.179               -13.1          30.11          46.42          30.75           -5.3           2.99         -41.51          23.89         -3.099          125.2          30.63
    0.1969              -13.11          30.11          46.42          30.75         -5.298          2.991         -41.48           23.9          -3.08          125.2          30.63
    0.2148              -13.11          30.11          46.42          30.76         -5.296          2.992         -41.45          23.92         -3.059          125.2          30.64
    0.2327              -13.12          30.11          46.42          30.76         -5.293          2.993         -41.42          23.93         -3.037          125.1          30.64
    0.2506              -13.13          30.11          46.42          30.76         -5.291          2.994         -41.38          23.95         -3.013          125.1          30.64
    0.2685              -13.14          30.12          46.41          30.76         -5.288          2.996         -41.34          23.97         -2.987          125.1          30.64
    0.2864              -13.15          30.12          46.41          30.77         -5.285          2.997         -41.29          23.99         -2.959          125.1          30.65
    0.3043              -13.16          30.12          46.41          30.77         -5.282          2.999         -41.24          24.01         -2.929          125.0          30.65
    0.3222              -13.17          30.13           46.4          30.77         -5.278          3.001         -41.19          24.04         -2.895          125.0          30.66
    0.3401              -13.18          30.13           46.4          30.78         -5.275          3.003         -41.13          24.07         -2.858          124.9          30.66
     0.358              -13.19          30.13           46.4          30.78          -5.27          3.005         -41.07           24.1         -2.818          124.9          30.67
    0.3759               -13.2          30.14          46.39          30.79         -5.266          3.008         -40.99          24.13         -2.774          124.8          30.67
    0.3938              -13.22          30.14          46.39          30.79          -5.26          3.011         -40.92          24.17         -2.725          124.8          30.68
    0.4117              -13.24          30.15          46.39           30.8         -5.255          3.014         -40.83          24.21         -2.671          124.7          30.68
    0.4296              -13.26          30.15          46.38           30.8         -5.248          3.017         -40.73          24.25         -2.611          124.6          30.69
    0.4475              -13.28          30.16          46.37          30.81         -5.241          3.021         -40.62           24.3         -2.543          124.5           30.7
    0.4654               -13.3          30.17          46.37          30.82         -5.233          3.025          -40.5          24.36         -2.468          124.4          30.71
    0.4833              -13.33          30.18          46.36          30.83         -5.224           3.03         -40.37          24.42         -2.383          124.3          30.72
    0.5012              -13.36          30.19          46.35          30.84         -5.214          3.035         -40.21          24.49         -2.288          124.2          30.73
    0.5191              -13.39           30.2          46.34          30.85         -5.203          3.041         -40.04          24.57         -2.179          124.1          30.74
     0.537              -13.43          30.21          46.33          30.86          -5.19          3.048         -39.84          24.66         -2.055          123.9          30.76
    0.5549              -13.48          30.22          46.32          30.88         -5.175          3.056         -39.61          24.77         -1.912          123.7          30.78
    0.5728              -13.53          30.24           46.3          30.89         -5.157          3.065         -39.35          24.89         -1.748          123.5           30.8
    0.5907              -13.59          30.26          46.29          30.91         -5.137          3.076         -39.04          25.03         -1.557          123.3          30.82
    0.6086              -13.66          30.28          46.27          30.94         -5.114          3.088         -38.69           25.2         -1.333          123.0          30.85
    0.6265              -13.74          30.31          46.24          30.96         -5.086          3.103         -38.26          25.39          -1.07          122.6          30.88
    0.6444              -13.84          30.34          46.22          30.99         -5.053           3.12         -37.76          25.62        -0.7569          122.2          30.92
    0.6623              -13.96          30.38          46.18          31.03         -5.013          3.141         -37.16           25.9        -0.3816          121.8          30.97
    0.6802              -14.11          30.42          46.14          31.08         -4.966          3.166         -36.43          26.24        0.07247          121.2          31.02
    0.6981              -14.28          30.48          46.09          31.14         -4.907          3.197         -35.54          26.65         0.6272          120.5          31.09
     0.716               -14.5          30.55          46.03          31.21         -4.835          3.236         -34.44          27.15          1.312          119.6          31.17
    0.7339              -14.77          30.63          45.96           31.3         -4.745          3.283         -33.08          27.78          2.165          118.5          31.28
    0.7518              -15.11          30.74          45.86          31.41         -4.632          3.343         -31.35          28.58          3.241          117.2          31.41
    0.7697              -15.54          30.88          45.74          31.55         -4.488          3.419         -29.16          29.59          4.608          115.4          31.58
    0.7876               -16.1          31.05          45.59          31.73         -4.303          3.517         -26.36          30.89          6.358          113.2          31.79
    0.8055              -16.81          31.28          45.39          31.96         -4.067          3.642         -22.76          32.55          8.603          110.3          32.07
    0.8234              -17.72          31.56          45.14          32.26         -3.764          3.802         -18.16          34.67          11.47          106.7          32.42
    0.8413              -18.86          31.92          44.82          32.63         -3.384          4.003         -12.38          37.34          15.08          102.1          32.87
    0.8592              -20.25          32.36          44.43          33.09         -2.921          4.248         -5.331           40.6          19.47          96.47          33.41
    0.8771              -21.87          32.87          43.98          33.62         -2.384          4.532          2.836          44.37          24.57          89.99          34.03
     0.895              -23.62          33.42           43.5          34.19         -1.803           4.84          11.68          48.45          30.08          82.96          34.71
    0.9129              -25.36          33.97          43.01          34.76         -1.222          5.147          20.52          52.53           35.6          75.93          35.39
    0.9308              -26.98          34.48          42.56          35.29        -0.6848          5.431          28.69           56.3          40.69          69.44          36.01
    0.9487              -28.37          34.92          42.17          35.74        -0.2216          5.676          35.73          59.56          45.09          63.84          36.56
    0.9666              -29.51          35.28          41.86          36.11         0.1584          5.877          41.52          62.22           48.7          59.25           37.0
    0.9845              -30.42          35.57           41.6          36.41         0.4607          6.037          46.11          64.35          51.56           55.6          37.35
     1.002              -31.13           35.8          41.41          36.64         0.6974          6.162          49.71          66.01          53.81          52.74          37.63
      1.02              -31.69          35.97          41.25          36.82         0.8818           6.26          52.52           67.3          55.56          50.51          37.84
     1.038              -32.12          36.11          41.13          36.97          1.026          6.336          54.71          68.32          56.93          48.76          38.01
     1.056              -32.46          36.21          41.04          37.08          1.139          6.396          56.43          69.11           58.0           47.4          38.14
